<svg xmlns="http://www.w3.org/2000/svg" xmlns:xlink="http://www.w3.org/1999/xlink" contentStyleType="text/css" height="359px" preserveAspectRatio="none" style="width:921px;height:359px;background:#FFFFFF;" version="1.1" viewBox="0 0 921 359" width="921px" zoomAndPan="magnify"><defs/><g><!--class ProveedorPublicaciones--><g id="elem_ProveedorPublicaciones"><rect codeLine="1" fill="#F1F1F1" height="64.2969" id="ProveedorPublicaciones" rx="2.5" ry="2.5" style="stroke:#181818;stroke-width:0.5;" width="279.3125" x="321" y="163.89"/><ellipse cx="373.0693" cy="179.89" fill="#B4A7E5" rx="11" ry="11" style="stroke:#181818;stroke-width:1;"/><path d="M368.9912,175.6556 L368.9912,173.4994 L376.3818,173.4994 L376.3818,175.6556 L373.9131,175.6556 L373.9131,183.7338 L376.3818,183.7338 L376.3818,185.89 L368.9912,185.89 L368.9912,183.7338 L371.46,183.7338 L371.46,175.6556 L368.9912,175.6556 Z " fill="#000000"/><text fill="#000000" font-family="sans-serif" font-size="14" font-style="italic" lengthAdjust="spacing" textLength="166.6738" x="393.5693" y="184.7367">ProveedorPublicaciones</text><line style="stroke:#181818;stroke-width:0.5;" x1="322" x2="599.3125" y1="195.89" y2="195.89"/><line style="stroke:#181818;stroke-width:0.5;" x1="322" x2="599.3125" y1="203.89" y2="203.89"/><ellipse cx="332" cy="217.5384" fill="#84BE84" rx="3" ry="3" style="stroke:#038048;stroke-width:1;"/><text fill="#000000" font-family="sans-serif" font-size="14" lengthAdjust="spacing" textLength="253.3125" x="341" y="220.8851">obtener_publicaciones(): List&lt;Dict&gt;</text></g><!--class ServicioBaseDatosLocal--><g id="elem_ServicioBaseDatosLocal"><rect codeLine="5" fill="#F1F1F1" height="64.2969" id="ServicioBaseDatosLocal" rx="2.5" ry="2.5" style="stroke:#181818;stroke-width:0.5;" width="279.3125" x="7" y="288.18"/><ellipse cx="58.9497" cy="304.18" fill="#ADD1B2" rx="11" ry="11" style="stroke:#181818;stroke-width:1;"/><path d="M61.9185,309.8206 Q61.3403,310.1175 60.6997,310.2581 Q60.0591,310.4144 59.356,310.4144 Q56.856,310.4144 55.5278,308.7738 Q54.2153,307.1175 54.2153,303.9925 Q54.2153,300.8675 55.5278,299.2113 Q56.856,297.555 59.356,297.555 Q60.0591,297.555 60.6997,297.7113 Q61.356,297.8675 61.9185,298.1644 L61.9185,300.8831 Q61.2935,300.305 60.6997,300.0394 Q60.106,299.7581 59.481,299.7581 Q58.1372,299.7581 57.4497,300.8363 Q56.7622,301.8988 56.7622,303.9925 Q56.7622,306.0863 57.4497,307.1644 Q58.1372,308.2269 59.481,308.2269 Q60.106,308.2269 60.6997,307.9613 Q61.2935,307.68 61.9185,307.1019 L61.9185,309.8206 Z " fill="#000000"/><text fill="#000000" font-family="sans-serif" font-size="14" lengthAdjust="spacing" textLength="166.9131" x="79.4497" y="309.0267">ServicioBaseDatosLocal</text><line style="stroke:#181818;stroke-width:0.5;" x1="8" x2="285.3125" y1="320.18" y2="320.18"/><line style="stroke:#181818;stroke-width:0.5;" x1="8" x2="285.3125" y1="328.18" y2="328.18"/><ellipse cx="18" cy="341.8284" fill="#84BE84" rx="3" ry="3" style="stroke:#038048;stroke-width:1;"/><text fill="#000000" font-family="sans-serif" font-size="14" lengthAdjust="spacing" textLength="253.3125" x="27" y="345.1751">obtener_publicaciones(): List&lt;Dict&gt;</text></g><!--class ServicioBaseDatosJson--><g id="elem_ServicioBaseDatosJson"><rect codeLine="9" fill="#F1F1F1" height="64.2969" id="ServicioBaseDatosJson" rx="2.5" ry="2.5" style="stroke:#181818;stroke-width:0.5;" width="279.3125" x="321" y="288.18"/><ellipse cx="376.7847" cy="304.18" fill="#ADD1B2" rx="11" ry="11" style="stroke:#181818;stroke-width:1;"/><path d="M379.7534,309.8206 Q379.1753,310.1175 378.5347,310.2581 Q377.894,310.4144 377.1909,310.4144 Q374.6909,310.4144 373.3628,308.7738 Q372.0503,307.1175 372.0503,303.9925 Q372.0503,300.8675 373.3628,299.2113 Q374.6909,297.555 377.1909,297.555 Q377.894,297.555 378.5347,297.7113 Q379.1909,297.8675 379.7534,298.1644 L379.7534,300.8831 Q379.1284,300.305 378.5347,300.0394 Q377.9409,299.7581 377.3159,299.7581 Q375.9722,299.7581 375.2847,300.8363 Q374.5972,301.8988 374.5972,303.9925 Q374.5972,306.0863 375.2847,307.1644 Q375.9722,308.2269 377.3159,308.2269 Q377.9409,308.2269 378.5347,307.9613 Q379.1284,307.68 379.7534,307.1019 L379.7534,309.8206 Z " fill="#000000"/><text fill="#000000" font-family="sans-serif" font-size="14" lengthAdjust="spacing" textLength="159.2432" x="397.2847" y="309.0267">ServicioBaseDatosJson</text><line style="stroke:#181818;stroke-width:0.5;" x1="322" x2="599.3125" y1="320.18" y2="320.18"/><line style="stroke:#181818;stroke-width:0.5;" x1="322" x2="599.3125" y1="328.18" y2="328.18"/><ellipse cx="332" cy="341.8284" fill="#84BE84" rx="3" ry="3" style="stroke:#038048;stroke-width:1;"/><text fill="#000000" font-family="sans-serif" font-size="14" lengthAdjust="spacing" textLength="253.3125" x="341" y="345.1751">obtener_publicaciones(): List&lt;Dict&gt;</text></g><!--class ServicioApiWeb--><g id="elem_ServicioApiWeb"><rect codeLine="13" fill="#F1F1F1" height="64.2969" id="ServicioApiWeb" rx="2.5" ry="2.5" style="stroke:#181818;stroke-width:0.5;" width="279.3125" x="635" y="288.18"/><ellipse cx="715.7666" cy="304.18" fill="#ADD1B2" rx="11" ry="11" style="stroke:#181818;stroke-width:1;"/><path d="M718.7354,309.8206 Q718.1572,310.1175 717.5166,310.2581 Q716.876,310.4144 716.1729,310.4144 Q713.6729,310.4144 712.3447,308.7738 Q711.0322,307.1175 711.0322,303.9925 Q711.0322,300.8675 712.3447,299.2113 Q713.6729,297.555 716.1729,297.555 Q716.876,297.555 717.5166,297.7113 Q718.1729,297.8675 718.7354,298.1644 L718.7354,300.8831 Q718.1104,300.305 717.5166,300.0394 Q716.9229,299.7581 716.2979,299.7581 Q714.9541,299.7581 714.2666,300.8363 Q713.5791,301.8988 713.5791,303.9925 Q713.5791,306.0863 714.2666,307.1644 Q714.9541,308.2269 716.2979,308.2269 Q716.9229,308.2269 717.5166,307.9613 Q718.1104,307.68 718.7354,307.1019 L718.7354,309.8206 Z " fill="#000000"/><text fill="#000000" font-family="sans-serif" font-size="14" lengthAdjust="spacing" textLength="109.2793" x="736.2666" y="309.0267">ServicioApiWeb</text><line style="stroke:#181818;stroke-width:0.5;" x1="636" x2="913.3125" y1="320.18" y2="320.18"/><line style="stroke:#181818;stroke-width:0.5;" x1="636" x2="913.3125" y1="328.18" y2="328.18"/><ellipse cx="646" cy="341.8284" fill="#84BE84" rx="3" ry="3" style="stroke:#038048;stroke-width:1;"/><text fill="#000000" font-family="sans-serif" font-size="14" lengthAdjust="spacing" textLength="253.3125" x="655" y="345.1751">obtener_publicaciones(): List&lt;Dict&gt;</text></g><!--class ServicioPublicaciones--><g id="elem_ServicioPublicaciones"><rect codeLine="17" fill="#F1F1F1" height="96.8906" id="ServicioPublicaciones" rx="2.5" ry="2.5" style="stroke:#181818;stroke-width:0.5;" width="334.834" x="293.24" y="7"/><ellipse cx="381.0203" cy="23" fill="#ADD1B2" rx="11" ry="11" style="stroke:#181818;stroke-width:1;"/><path d="M383.989,28.6406 Q383.4109,28.9375 382.7703,29.0781 Q382.1296,29.2344 381.4265,29.2344 Q378.9265,29.2344 377.5984,27.5938 Q376.2859,25.9375 376.2859,22.8125 Q376.2859,19.6875 377.5984,18.0313 Q378.9265,16.375 381.4265,16.375 Q382.1296,16.375 382.7703,16.5313 Q383.4265,16.6875 383.989,16.9844 L383.989,19.7031 Q383.364,19.125 382.7703,18.8594 Q382.1765,18.5781 381.5515,18.5781 Q380.2078,18.5781 379.5203,19.6563 Q378.8328,20.7188 378.8328,22.8125 Q378.8328,24.9063 379.5203,25.9844 Q380.2078,27.0469 381.5515,27.0469 Q382.1765,27.0469 382.7703,26.7813 Q383.364,26.5 383.989,25.9219 L383.989,28.6406 Z " fill="#000000"/><text fill="#000000" font-family="sans-serif" font-size="14" lengthAdjust="spacing" textLength="150.7734" x="401.5203" y="27.8467">ServicioPublicaciones</text><line style="stroke:#181818;stroke-width:0.5;" x1="294.24" x2="627.074" y1="39" y2="39"/><rect fill="none" height="6" style="stroke:#C82930;stroke-width:1;" width="6" x="301.24" y="49.6484"/><text fill="#000000" font-family="sans-serif" font-size="14" lengthAdjust="spacing" textLength="247.7686" x="313.24" y="55.9951">proveedor: ProveedorPublicaciones</text><line style="stroke:#181818;stroke-width:0.5;" x1="294.24" x2="627.074" y1="63.2969" y2="63.2969"/><ellipse cx="304.24" cy="76.9453" fill="#84BE84" rx="3" ry="3" style="stroke:#038048;stroke-width:1;"/><text fill="#000000" font-family="sans-serif" font-size="14" lengthAdjust="spacing" textLength="308.834" x="313.24" y="80.292">__init__(proveedor: ProveedorPublicaciones)</text><ellipse cx="304.24" cy="93.2422" fill="#84BE84" rx="3" ry="3" style="stroke:#038048;stroke-width:1;"/><text fill="#000000" font-family="sans-serif" font-size="14" lengthAdjust="spacing" textLength="253.3125" x="313.24" y="96.5889">obtener_publicaciones(): List&lt;Dict&gt;</text></g><!--reverse link ProveedorPublicaciones to ServicioBaseDatosLocal--><g id="link_ProveedorPublicaciones_ServicioBaseDatosLocal"><path codeLine="23" d="M363.0174,235.063 C316.3174,253.253 274.54,269.53 227.79,287.73 " fill="none" id="ProveedorPublicaciones-backto-ServicioBaseDatosLocal" style="stroke:#181818;stroke-width:1;stroke-dasharray:7.0,7.0;"/><polygon fill="none" points="379.79,228.53,360.8397,229.4722,365.1951,240.6539,379.79,228.53" style="stroke:#181818;stroke-width:1;"/></g><!--reverse link ProveedorPublicaciones to ServicioBaseDatosJson--><g id="link_ProveedorPublicaciones_ServicioBaseDatosJson"><path codeLine="24" d="M460.66,246.53 C460.66,264.79 460.66,269.7 460.66,287.94 " fill="none" id="ProveedorPublicaciones-backto-ServicioBaseDatosJson" style="stroke:#181818;stroke-width:1;stroke-dasharray:7.0,7.0;"/><polygon fill="none" points="460.66,228.53,454.66,246.53,466.66,246.53,460.66,228.53" style="stroke:#181818;stroke-width:1;"/></g><!--reverse link ProveedorPublicaciones to ServicioApiWeb--><g id="link_ProveedorPublicaciones_ServicioApiWeb"><path codeLine="25" d="M558.2926,235.063 C604.9926,253.253 646.78,269.53 693.52,287.73 " fill="none" id="ProveedorPublicaciones-backto-ServicioApiWeb" style="stroke:#181818;stroke-width:1;stroke-dasharray:7.0,7.0;"/><polygon fill="none" points="541.52,228.53,556.1149,240.6539,560.4703,229.4722,541.52,228.53" style="stroke:#181818;stroke-width:1;"/></g><!--link ServicioPublicaciones to ProveedorPublicaciones--><g id="link_ServicioPublicaciones_ProveedorPublicaciones"><path codeLine="26" d="M460.66,104.14 C460.66,123.87 460.66,140.2 460.66,157.79 " fill="none" id="ServicioPublicaciones-to-ProveedorPublicaciones" style="stroke:#181818;stroke-width:1;"/><polygon fill="#181818" points="460.66,163.79,464.66,154.79,460.66,158.79,456.66,154.79,460.66,163.79" style="stroke:#181818;stroke-width:1;"/></g><!--SRC=[hP6n2i9038RtUugC5caVe9I2qaaw51mSZ-iP8L0kvN9sKT_TYWeEFRJKhCd_9_b-SW7zoLY4nlE0U6JVdDkEhB743WKk2iPQ0xS17NhTVtPNIGurIIWgig5KDwLiPqHWZtwWSMHh12iJM6gsflkJrqxOBRFQz7J0Tfd75AKK-ZV4FCBpjL9hSXIqNdqL9FEEZAHONBCiaieyoGF-JuedOpMDAqtBoBjt]--></g></svg>