
<svg xmlns="http://www.w3.org/2000/svg" xmlns:xlink="http://www.w3.org/1999/xlink" contentStyleType="text/css" height="267px" preserveAspectRatio="none" style="width:921px;height:267px;background:#FFFFFF;" version="1.1" viewBox="0 0 921 267" width="921px" zoomAndPan="magnify"><defs/><g><!--class ServicioBaseDatosLocal--><g id="elem_ServicioBaseDatosLocal"><rect codeLine="1" fill="#F1F1F1" height="64.2969" id="ServicioBaseDatosLocal" rx="2.5" ry="2.5" style="stroke:#181818;stroke-width:0.5;" width="279.3125" x="7" y="196.48"/><ellipse cx="58.9497" cy="212.48" fill="#ADD1B2" rx="11" ry="11" style="stroke:#181818;stroke-width:1;"/><path d="M61.9185,218.1206 Q61.3403,218.4175 60.6997,218.5581 Q60.0591,218.7144 59.356,218.7144 Q56.856,218.7144 55.5278,217.0738 Q54.2153,215.4175 54.2153,212.2925 Q54.2153,209.1675 55.5278,207.5113 Q56.856,205.855 59.356,205.855 Q60.0591,205.855 60.6997,206.0113 Q61.356,206.1675 61.9185,206.4644 L61.9185,209.1831 Q61.2935,208.605 60.6997,208.3394 Q60.106,208.0581 59.481,208.0581 Q58.1372,208.0581 57.4497,209.1363 Q56.7622,210.1988 56.7622,212.2925 Q56.7622,214.3863 57.4497,215.4644 Q58.1372,216.5269 59.481,216.5269 Q60.106,216.5269 60.6997,216.2613 Q61.2935,215.98 61.9185,215.4019 L61.9185,218.1206 Z " fill="#000000"/><text fill="#000000" font-family="sans-serif" font-size="14" lengthAdjust="spacing" textLength="166.9131" x="79.4497" y="217.3267">ServicioBaseDatosLocal</text><line style="stroke:#181818;stroke-width:0.5;" x1="8" x2="285.3125" y1="228.48" y2="228.48"/><line style="stroke:#181818;stroke-width:0.5;" x1="8" x2="285.3125" y1="236.48" y2="236.48"/><ellipse cx="18" cy="250.1284" fill="#84BE84" rx="3" ry="3" style="stroke:#038048;stroke-width:1;"/><text fill="#000000" font-family="sans-serif" font-size="14" lengthAdjust="spacing" textLength="253.3125" x="27" y="253.4751">obtener_publicaciones(): List&lt;Dict&gt;</text></g><!--class ServicioBaseDatosJson--><g id="elem_ServicioBaseDatosJson"><rect codeLine="5" fill="#F1F1F1" height="64.2969" id="ServicioBaseDatosJson" rx="2.5" ry="2.5" style="stroke:#181818;stroke-width:0.5;" width="279.3125" x="321" y="196.48"/><ellipse cx="376.7847" cy="212.48" fill="#ADD1B2" rx="11" ry="11" style="stroke:#181818;stroke-width:1;"/><path d="M379.7534,218.1206 Q379.1753,218.4175 378.5347,218.5581 Q377.894,218.7144 377.1909,218.7144 Q374.6909,218.7144 373.3628,217.0738 Q372.0503,215.4175 372.0503,212.2925 Q372.0503,209.1675 373.3628,207.5113 Q374.6909,205.855 377.1909,205.855 Q377.894,205.855 378.5347,206.0113 Q379.1909,206.1675 379.7534,206.4644 L379.7534,209.1831 Q379.1284,208.605 378.5347,208.3394 Q377.9409,208.0581 377.3159,208.0581 Q375.9722,208.0581 375.2847,209.1363 Q374.5972,210.1988 374.5972,212.2925 Q374.5972,214.3863 375.2847,215.4644 Q375.9722,216.5269 377.3159,216.5269 Q377.9409,216.5269 378.5347,216.2613 Q379.1284,215.98 379.7534,215.4019 L379.7534,218.1206 Z " fill="#000000"/><text fill="#000000" font-family="sans-serif" font-size="14" lengthAdjust="spacing" textLength="159.2432" x="397.2847" y="217.3267">ServicioBaseDatosJson</text><line style="stroke:#181818;stroke-width:0.5;" x1="322" x2="599.3125" y1="228.48" y2="228.48"/><line style="stroke:#181818;stroke-width:0.5;" x1="322" x2="599.3125" y1="236.48" y2="236.48"/><ellipse cx="332" cy="250.1284" fill="#84BE84" rx="3" ry="3" style="stroke:#038048;stroke-width:1;"/><text fill="#000000" font-family="sans-serif" font-size="14" lengthAdjust="spacing" textLength="253.3125" x="341" y="253.4751">obtener_publicaciones(): List&lt;Dict&gt;</text></g><!--class ServicioApiWeb--><g id="elem_ServicioApiWeb"><rect codeLine="9" fill="#F1F1F1" height="64.2969" id="ServicioApiWeb" rx="2.5" ry="2.5" style="stroke:#181818;stroke-width:0.5;" width="279.3125" x="635" y="196.48"/><ellipse cx="715.7666" cy="212.48" fill="#ADD1B2" rx="11" ry="11" style="stroke:#181818;stroke-width:1;"/><path d="M718.7354,218.1206 Q718.1572,218.4175 717.5166,218.5581 Q716.876,218.7144 716.1729,218.7144 Q713.6729,218.7144 712.3447,217.0738 Q711.0322,215.4175 711.0322,212.2925 Q711.0322,209.1675 712.3447,207.5113 Q713.6729,205.855 716.1729,205.855 Q716.876,205.855 717.5166,206.0113 Q718.1729,206.1675 718.7354,206.4644 L718.7354,209.1831 Q718.1104,208.605 717.5166,208.3394 Q716.9229,208.0581 716.2979,208.0581 Q714.9541,208.0581 714.2666,209.1363 Q713.5791,210.1988 713.5791,212.2925 Q713.5791,214.3863 714.2666,215.4644 Q714.9541,216.5269 716.2979,216.5269 Q716.9229,216.5269 717.5166,216.2613 Q718.1104,215.98 718.7354,215.4019 L718.7354,218.1206 Z " fill="#000000"/><text fill="#000000" font-family="sans-serif" font-size="14" lengthAdjust="spacing" textLength="109.2793" x="736.2666" y="217.3267">ServicioApiWeb</text><line style="stroke:#181818;stroke-width:0.5;" x1="636" x2="913.3125" y1="228.48" y2="228.48"/><line style="stroke:#181818;stroke-width:0.5;" x1="636" x2="913.3125" y1="236.48" y2="236.48"/><ellipse cx="646" cy="250.1284" fill="#84BE84" rx="3" ry="3" style="stroke:#038048;stroke-width:1;"/><text fill="#000000" font-family="sans-serif" font-size="14" lengthAdjust="spacing" textLength="253.3125" x="655" y="253.4751">obtener_publicaciones(): List&lt;Dict&gt;</text></g><!--class ServicioPublicaciones--><g id="elem_ServicioPublicaciones"><rect codeLine="13" fill="#F1F1F1" height="129.4844" id="ServicioPublicaciones" rx="2.5" ry="2.5" style="stroke:#181818;stroke-width:0.5;" width="368.2275" x="276.54" y="7"/><ellipse cx="381.0171" cy="23" fill="#ADD1B2" rx="11" ry="11" style="stroke:#181818;stroke-width:1;"/><path d="M383.9858,28.6406 Q383.4077,28.9375 382.7671,29.0781 Q382.1264,29.2344 381.4233,29.2344 Q378.9233,29.2344 377.5952,27.5938 Q376.2827,25.9375 376.2827,22.8125 Q376.2827,19.6875 377.5952,18.0313 Q378.9233,16.375 381.4233,16.375 Q382.1264,16.375 382.7671,16.5313 Q383.4233,16.6875 383.9858,16.9844 L383.9858,19.7031 Q383.3608,19.125 382.7671,18.8594 Q382.1733,18.5781 381.5483,18.5781 Q380.2046,18.5781 379.5171,19.6563 Q378.8296,20.7188 378.8296,22.8125 Q378.8296,24.9063 379.5171,25.9844 Q380.2046,27.0469 381.5483,27.0469 Q382.1733,27.0469 382.7671,26.7813 Q383.3608,26.5 383.9858,25.9219 L383.9858,28.6406 Z " fill="#000000"/><text fill="#000000" font-family="sans-serif" font-size="14" lengthAdjust="spacing" textLength="150.7734" x="401.5171" y="27.8467">ServicioPublicaciones</text><line style="stroke:#181818;stroke-width:0.5;" x1="277.54" x2="643.7675" y1="39" y2="39"/><rect fill="none" height="6" style="stroke:#C82930;stroke-width:1;" width="6" x="284.54" y="49.6484"/><text fill="#000000" font-family="sans-serif" font-size="14" lengthAdjust="spacing" textLength="180.5918" x="296.54" y="55.9951">publicaciones: List&lt;Dict&gt;</text><line style="stroke:#181818;stroke-width:0.5;" x1="277.54" x2="643.7675" y1="63.2969" y2="63.2969"/><ellipse cx="287.54" cy="76.9453" fill="#84BE84" rx="3" ry="3" style="stroke:#038048;stroke-width:1;"/><text fill="#000000" font-family="sans-serif" font-size="14" lengthAdjust="spacing" textLength="61.0654" x="296.54" y="80.292">__init__()</text><ellipse cx="287.54" cy="93.2422" fill="#84BE84" rx="3" ry="3" style="stroke:#038048;stroke-width:1;"/><text fill="#000000" font-family="sans-serif" font-size="14" lengthAdjust="spacing" textLength="342.2275" x="296.54" y="96.5889">obtener_publicaciones_desde_local(): List&lt;Dict&gt;</text><ellipse cx="287.54" cy="109.5391" fill="#84BE84" rx="3" ry="3" style="stroke:#038048;stroke-width:1;"/><text fill="#000000" font-family="sans-serif" font-size="14" lengthAdjust="spacing" textLength="338.2285" x="296.54" y="112.8857">obtener_publicaciones_desde_json(): List&lt;Dict&gt;</text><ellipse cx="287.54" cy="125.8359" fill="#84BE84" rx="3" ry="3" style="stroke:#038048;stroke-width:1;"/><text fill="#000000" font-family="sans-serif" font-size="14" lengthAdjust="spacing" textLength="330.9619" x="296.54" y="129.1826">obtener_publicaciones_desde_api(): List&lt;Dict&gt;</text></g><!--link ServicioPublicaciones to ServicioBaseDatosLocal--><g id="link_ServicioPublicaciones_ServicioBaseDatosLocal"><path codeLine="21" d="M330.67,136.86 C289.17,157.33 250.4508,176.4354 215.8308,193.5154 " fill="none" id="ServicioPublicaciones-to-ServicioBaseDatosLocal" style="stroke:#181818;stroke-width:1;"/><polygon fill="#181818" points="210.45,196.17,220.2909,195.7752,214.934,193.9578,216.7514,188.6008,210.45,196.17" style="stroke:#181818;stroke-width:1;"/></g><!--link ServicioPublicaciones to ServicioBaseDatosJson--><g id="link_ServicioPublicaciones_ServicioBaseDatosJson"><path codeLine="22" d="M460.66,136.64 C460.66,157.14 460.66,172.94 460.66,190.07 " fill="none" id="ServicioPublicaciones-to-ServicioBaseDatosJson" style="stroke:#181818;stroke-width:1;"/><polygon fill="#181818" points="460.66,196.07,464.66,187.07,460.66,191.07,456.66,187.07,460.66,196.07" style="stroke:#181818;stroke-width:1;"/></g><!--link ServicioPublicaciones to ServicioApiWeb--><g id="link_ServicioPublicaciones_ServicioApiWeb"><path codeLine="23" d="M590.64,136.86 C632.14,157.33 670.8589,176.436 705.4889,193.516 " fill="none" id="ServicioPublicaciones-to-ServicioApiWeb" style="stroke:#181818;stroke-width:1;"/><polygon fill="#181818" points="710.87,196.17,704.5677,188.6016,706.3858,193.9583,701.029,195.7764,710.87,196.17" style="stroke:#181818;stroke-width:1;"/></g><!--SRC=[Iyv9B2vM24ujAijCpintIYnETKaioI_soKzEp56evb800cs5_AIIrBpKelY2qgISpEH4eCAyr68DJIi5dypY4XkNpEGIEwvQBgvax6Pv5UVdKMQKOq5cU6eIPMO482k66gMhW684YW4Gg-BZC_CoI-BZDJJnsHsVabgSaXgV0meqD7SGrfK531wIDIKMP69w6BjNTNNjSCGlAHf0aKY4UaXC0G00]--></g></svg>